Coordinates
version=1
nRows=11
nColumns=40
inDegrees=yes

Units are S.I. units (second, meters, Newtons, ...)
If the header above contains a line with 'inDegrees', this indicates whether rotational values are in degrees (yes) or radians (no).

endheader
time	pelvis_tilt	pelvis_list	pelvis_rotation	pelvis_tx	pelvis_ty	pelvis_tz	hip_flexion_r	hip_adduction_r	hip_rotation_r	knee_angle_r	knee_angle_r_beta	ankle_angle_r	subtalar_angle_r	mtp_angle_r	hip_flexion_l	hip_adduction_l	hip_rotation_l	knee_angle_l	knee_angle_l_beta	ankle_angle_l	subtalar_angle_l	mtp_angle_l	lumbar_extension	lumbar_bending	lumbar_rotation	arm_flex_r	arm_add_r	arm_rot_r	elbow_flex_r	pro_sup_r	wrist_flex_r	wrist_dev_r	arm_flex_l	arm_add_l	arm_rot_l	elbow_flex_l	pro_sup_l	wrist_flex_l	wrist_dev_l
      0.00000000	     14.35804488	      5.26850431	      5.08209024	      0.07672220	      0.94661388	     -0.37424426	     13.77466045	     -5.83691804	     -9.19701060	      7.89221388	      0.13774512	    -13.41550617	      0.00000000	      0.00000000	    -29.48188838	      5.30485384	      4.14948436	     12.25832830	      0.21394819	     -0.89081815	      0.00000000	      0.00000000	    -31.35892991	     -3.50669906	    -10.29422386	     -0.38041919	    -15.60214404	      8.18449836	     44.40664306	     74.75773482	      0.00000000	      0.00000000	     14.52985925	    -29.57729634	     25.15132909	     61.48323666	     67.73192265	      0.00000000	      0.00000000
      0.00400000	     14.24695744	      5.27402708	      5.15048207	      0.08257739	      0.94552155	     -0.37419087	     14.01757669	     -5.82195139	     -8.99540219	      8.02096793	      0.13999230	    -13.52036349	      0.00000000	      0.00000000	    -29.56114519	      5.20861968	      4.29678731	     12.59305864	      0.21979034	     -1.01329619	      0.00000000	      0.00000000	    -31.18879620	     -3.46710352	    -10.35907859	     -0.47698861	    -15.55016937	      8.13623470	     44.34042978	     74.75296231	      0.00000000	      0.00000000	     14.47834549	    -29.55965850	     25.11694755	     61.43076104	     67.73439072	      0.00000000	      0.00000000
      0.00800000	     14.21192901	      5.45216564	      5.27934922	      0.08780045	      0.94453353	     -0.37439922	     14.46348809	     -6.07650041	     -9.02010985	      8.82429916	      0.15401307	    -13.23083552	      0.00000000	      0.00000000	    -29.51339605	      5.27380348	      4.38785089	     13.34792263	      0.23296520	     -1.05757573	      0.00000000	      0.00000000	    -31.22394103	     -3.52063276	    -10.56683745	     -0.43110726	    -15.44891104	      7.89875475	     44.26441486	     74.76021025	      0.00000000	      0.00000000	     14.53392386	    -29.54086021	     24.99405732	     61.40201082	     67.85541908	      0.00000000	      0.00000000
      0.01200000	     14.13462562	      5.46475240	      5.33109608	      0.09326624	      0.94357260	     -0.37450752	     14.74577157	     -6.08896614	     -8.74181738	      9.20482561	      0.16065451	    -13.36653778	      0.00000000	      0.00000000	    -29.54545681	      5.20395029	      4.60548851	     13.79575277	      0.24078131	     -1.19218533	      0.00000000	      0.00000000	    -31.14587848	     -3.46267945	    -10.61728090	     -0.43410885	    -15.43140931	      7.83160199	     44.22138834	     74.73902891	      0.00000000	      0.00000000	     14.55732881	    -29.46908073	     24.92092291	     61.32346689	     67.87374243	      0.00000000	      0.00000000
      0.01600000	     14.01952001	      5.48782351	      5.40673408	      0.09934395	      0.94254741	     -0.37449804	     14.92520450	     -6.09408546	     -8.52562179	      9.40937998	      0.16422466	    -13.46838418	      0.00000000	      0.00000000	    -29.62025676	      5.12082111	      4.74584618	     14.13907743	      0.24677345	     -1.31867978	      0.00000000	      0.00000000	    -30.95849887	     -3.43120761	    -10.67397142	     -0.55510453	    -15.41170594	      7.80570971	     44.17635914	     74.72976512	      0.00000000	      0.00000000	     14.46209580	    -29.42837675	     24.91233560	     61.26900710	     67.87811687	      0.00000000	      0.00000000
      0.02000000	     13.95764297	      5.76945908	      5.47366803	      0.10452738	      0.94152223	     -0.37508884	     15.58309253	     -6.52253922	     -8.73764722	     10.79980795	      0.18849221	    -12.86773953	      0.00000000	      0.00000000	    -29.55814216	      5.34191817	      5.00288613	     14.87126198	      0.25955249	     -1.33275814	      0.00000000	      0.00000000	    -30.96919399	     -3.58047732	    -10.89938716	     -0.46199702	    -15.40667228	      7.71069766	     44.12839176	     74.65208810	      0.00000000	      0.00000000	     14.49266706	    -29.35733761	     24.72646491	     61.20551606	     68.00843419	      0.00000000	      0.00000000
      0.02400000	     13.89149366	      5.75799870	      5.57274892	      0.11025440	      0.94069424	     -0.37493002	     15.77215167	     -6.49085532	     -8.39425912	     11.22864576	      0.19597684	    -12.96104146	      0.00000000	      0.00000000	    -29.59395614	      5.20979188	      5.30020354	     15.34696962	      0.26785515	     -1.52982349	      0.00000000	      0.00000000	    -30.88736773	     -3.50038515	    -10.95722217	     -0.48257294	    -15.35001071	      7.62697679	     44.03791248	     74.61042477	      0.00000000	      0.00000000	     14.45642111	    -29.30557524	     24.62426287	     61.10442254	     68.00543308	      0.00000000	      0.00000000
      0.02800000	     13.81202249	      5.95792671	      5.59812712	      0.11606669	      0.93978554	     -0.37514921	     16.20503159	     -6.77893837	     -8.47852922	     12.23365389	      0.21351754	    -12.53651194	      0.00000000	      0.00000000	    -29.58574329	      5.33539193	      5.42898656	     15.94376089	      0.27827112	     -1.66675752	      0.00000000	      0.00000000	    -30.80399131	     -3.63264757	    -11.06109783	     -0.40830097	    -15.31635374	      7.59637489	     43.77357189	     74.56134059	      0.00000000	      0.00000000	     14.37963864	    -29.25159655	     24.53198312	     61.07647625	     68.07605518	      0.00000000	      0.00000000
      0.03200000	     13.76067368	      6.02710816	      5.64857262	      0.12179824	      0.93892051	     -0.37534294	     16.51131307	     -6.90083636	     -8.42183834	     13.05977099	      0.22793600	    -12.28619434	      0.00000000	      0.00000000	    -29.60430339	      5.32731615	      5.64107383	     16.48197400	      0.28766471	     -1.89532967	      0.00000000	      0.00000000	    -30.74914877	     -3.60964608	    -11.17671680	     -0.48710964	    -15.34811936	      7.67164006	     43.92961628	     74.46626802	      0.00000000	      0.00000000	     14.23920039	    -29.17544552	     24.28379971	     61.02481718	     68.13056395	      0.00000000	      0.00000000
      0.03600000	     13.63898185	      6.00571479	      5.70640870	      0.12804169	      0.93813436	     -0.37517920	     16.59280555	     -6.83359154	     -8.17349014	     13.30210030	      0.23216545	    -12.38615414	      0.00000000	      0.00000000	    -29.65907044	      5.20646326	      5.82930339	     16.81592715	      0.29349330	     -2.10046182	      0.00000000	      0.00000000	    -30.54067681	     -3.56019074	    -11.17882992	     -0.61689394	    -15.29452890	      7.64657517	     43.87562840	     74.44265838	      0.00000000	      0.00000000	     14.07297971	    -29.12550149	     24.27650390	     60.96413998	     68.13587475	      0.00000000	      0.00000000
      0.04000000	     13.69591385	      6.13871611	      5.71109793	      0.13367502	      0.93752739	     -0.37525836	     16.87187521	     -7.00933480	     -8.02984500	     14.43745224	      0.25198108	    -11.86555694	      0.00000000	      0.00000000	    -29.61909056	      5.25107338	      5.79128433	     17.64096596	      0.30789294	     -2.67633971	      0.00000000	      0.00000000	    -30.63356714	     -3.60912501	    -11.27037474	     -0.53575750	    -15.24016423	      7.60756528	     43.77961635	     74.30260837	      0.00000000	      0.00000000	     14.00153497	    -29.03492577	     23.93178103	     60.88218164	     68.14895618	      0.00000000	      0.00000000
